<svg width="62" height="15" viewBox="0 0 62 15" fill="none" xmlns="http://www.w3.org/2000/svg">
<path d="M2.65625 14H0.107422V0.5H2.65625V14ZM9.13379 14.1758C7.73926 14.1758 6.60254 13.748 5.72363 12.8926C4.85059 12.0371 4.41406 10.8975 4.41406 9.47363V9.22754C4.41406 8.27246 4.59863 7.41992 4.96777 6.66992C5.33691 5.91406 5.8584 5.33398 6.53223 4.92969C7.21191 4.51953 7.98535 4.31445 8.85254 4.31445C10.1533 4.31445 11.1758 4.72461 11.9199 5.54492C12.6699 6.36523 13.0449 7.52832 13.0449 9.03418V10.0713H6.98926C7.07129 10.6924 7.31738 11.1904 7.72754 11.5654C8.14355 11.9404 8.66797 12.1279 9.30078 12.1279C10.2793 12.1279 11.0439 11.7734 11.5947 11.0645L12.8428 12.4619C12.4619 13.001 11.9463 13.4229 11.2959 13.7275C10.6455 14.0264 9.9248 14.1758 9.13379 14.1758ZM8.84375 6.37109C8.33984 6.37109 7.92969 6.54102 7.61328 6.88086C7.30273 7.2207 7.10352 7.70703 7.01562 8.33984H10.5488V8.1377C10.5371 7.5752 10.3848 7.1416 10.0918 6.83691C9.79883 6.52637 9.38281 6.37109 8.84375 6.37109ZM18.4502 12.1279C18.9189 12.1279 19.2998 11.999 19.5928 11.7412C19.8857 11.4834 20.0381 11.1406 20.0498 10.7129H22.4316C22.4258 11.3574 22.25 11.9492 21.9043 12.4883C21.5586 13.0215 21.084 13.4375 20.4805 13.7363C19.8828 14.0293 19.2207 14.1758 18.4941 14.1758C17.1348 14.1758 16.0625 13.7451 15.2773 12.8838C14.4922 12.0166 14.0996 10.8213 14.0996 9.29785V9.13086C14.0996 7.66602 14.4893 6.49707 15.2686 5.62402C16.0479 4.75098 17.1172 4.31445 18.4766 4.31445C19.666 4.31445 20.6182 4.6543 21.333 5.33398C22.0537 6.00781 22.4199 6.90723 22.4316 8.03223H20.0498C20.0381 7.54004 19.8857 7.1416 19.5928 6.83691C19.2998 6.52637 18.9131 6.37109 18.4326 6.37109C17.8408 6.37109 17.3926 6.58789 17.0879 7.02148C16.7891 7.44922 16.6396 8.14648 16.6396 9.11328V9.37695C16.6396 10.3555 16.7891 11.0586 17.0879 11.4863C17.3867 11.9141 17.8408 12.1279 18.4502 12.1279ZM26.9229 2.15234V4.49023H28.5488V6.35352H26.9229V11.0996C26.9229 11.4512 26.9902 11.7031 27.125 11.8555C27.2598 12.0078 27.5176 12.084 27.8984 12.084C28.1797 12.084 28.4287 12.0635 28.6455 12.0225V13.9473C28.1475 14.0996 27.6348 14.1758 27.1074 14.1758C25.3262 14.1758 24.418 13.2764 24.3828 11.4775V6.35352H22.9941V4.49023H24.3828V2.15234H26.9229ZM35.6592 13.0332C35.0322 13.7949 34.165 14.1758 33.0576 14.1758C32.0381 14.1758 31.2588 13.8828 30.7197 13.2969C30.1865 12.7109 29.9141 11.8525 29.9023 10.7217V4.49023H32.4424V10.6338C32.4424 11.624 32.8936 12.1191 33.7959 12.1191C34.6572 12.1191 35.249 11.8203 35.5713 11.2227V4.49023H38.1201V14H35.7295L35.6592 13.0332ZM45.3799 6.87207C45.0342 6.8252 44.7295 6.80176 44.4658 6.80176C43.5049 6.80176 42.875 7.12695 42.5762 7.77734V14H40.0361V4.49023H42.4355L42.5059 5.62402C43.0156 4.75098 43.7217 4.31445 44.624 4.31445C44.9053 4.31445 45.1689 4.35254 45.415 4.42871L45.3799 6.87207ZM50.8115 14.1758C49.417 14.1758 48.2803 13.748 47.4014 12.8926C46.5283 12.0371 46.0918 10.8975 46.0918 9.47363V9.22754C46.0918 8.27246 46.2764 7.41992 46.6455 6.66992C47.0146 5.91406 47.5361 5.33398 48.21 4.92969C48.8896 4.51953 49.6631 4.31445 50.5303 4.31445C51.8311 4.31445 52.8535 4.72461 53.5977 5.54492C54.3477 6.36523 54.7227 7.52832 54.7227 9.03418V10.0713H48.667C48.749 10.6924 48.9951 11.1904 49.4053 11.5654C49.8213 11.9404 50.3457 12.1279 50.9785 12.1279C51.957 12.1279 52.7217 11.7734 53.2725 11.0645L54.5205 12.4619C54.1396 13.001 53.624 13.4229 52.9736 13.7275C52.3232 14.0264 51.6025 14.1758 50.8115 14.1758ZM50.5215 6.37109C50.0176 6.37109 49.6074 6.54102 49.291 6.88086C48.9805 7.2207 48.7812 7.70703 48.6934 8.33984H52.2266V8.1377C52.2148 7.5752 52.0625 7.1416 51.7695 6.83691C51.4766 6.52637 51.0605 6.37109 50.5215 6.37109ZM61.5166 6.87207C61.1709 6.8252 60.8662 6.80176 60.6025 6.80176C59.6416 6.80176 59.0117 7.12695 58.7129 7.77734V14H56.1729V4.49023H58.5723L58.6426 5.62402C59.1523 4.75098 59.8584 4.31445 60.7607 4.31445C61.042 4.31445 61.3057 4.35254 61.5518 4.42871L61.5166 6.87207Z" fill="#0DDBB9"/>
</svg>
