<svg width="80" height="15" viewBox="0 0 80 15" fill="none" xmlns="http://www.w3.org/2000/svg">
<path d="M11.6543 7.8916C11.6543 9.15137 11.4316 10.2559 10.9863 11.2051C10.541 12.1543 9.90234 12.8867 9.07031 13.4023C8.24414 13.918 7.29492 14.1758 6.22266 14.1758C5.16211 14.1758 4.21582 13.9209 3.38379 13.4111C2.55176 12.9014 1.90723 12.1748 1.4502 11.2314C0.993164 10.2822 0.761719 9.19238 0.755859 7.96191V7.3291C0.755859 6.06934 0.981445 4.96191 1.43262 4.00684C1.88965 3.0459 2.53125 2.31055 3.35742 1.80078C4.18945 1.28516 5.13867 1.02734 6.20508 1.02734C7.27148 1.02734 8.21777 1.28516 9.04395 1.80078C9.87598 2.31055 10.5176 3.0459 10.9688 4.00684C11.4258 4.96191 11.6543 6.06641 11.6543 7.32031V7.8916ZM8.98242 7.31152C8.98242 5.96973 8.74219 4.9502 8.26172 4.25293C7.78125 3.55566 7.0957 3.20703 6.20508 3.20703C5.32031 3.20703 4.6377 3.55273 4.15723 4.24414C3.67676 4.92969 3.43359 5.9375 3.42773 7.26758V7.8916C3.42773 9.19824 3.66797 10.2119 4.14844 10.9326C4.62891 11.6533 5.32031 12.0137 6.22266 12.0137C7.10742 12.0137 7.78711 11.668 8.26172 10.9766C8.73633 10.2793 8.97656 9.26562 8.98242 7.93555V7.31152ZM15.7412 4.49023L15.8203 5.58887C16.5 4.73926 17.4111 4.31445 18.5537 4.31445C19.5615 4.31445 20.3115 4.61035 20.8037 5.20215C21.2959 5.79395 21.5479 6.67871 21.5596 7.85645V14H19.0195V7.91797C19.0195 7.37891 18.9023 6.98926 18.668 6.74902C18.4336 6.50293 18.0439 6.37988 17.499 6.37988C16.7842 6.37988 16.248 6.68457 15.8906 7.29395V14H13.3506V4.49023H15.7412ZM26.1738 14H23.625V0.5H26.1738V14ZM30.9551 14H28.4062V4.49023H30.9551V14ZM28.2568 2.0293C28.2568 1.64844 28.3828 1.33496 28.6348 1.08887C28.8926 0.842773 29.2412 0.719727 29.6807 0.719727C30.1143 0.719727 30.46 0.842773 30.7178 1.08887C30.9756 1.33496 31.1045 1.64844 31.1045 2.0293C31.1045 2.41602 30.9727 2.73242 30.709 2.97852C30.4512 3.22461 30.1084 3.34766 29.6807 3.34766C29.2529 3.34766 28.9072 3.22461 28.6436 2.97852C28.3857 2.73242 28.2568 2.41602 28.2568 2.0293ZM35.3936 4.49023L35.4727 5.58887C36.1523 4.73926 37.0635 4.31445 38.2061 4.31445C39.2139 4.31445 39.9639 4.61035 40.4561 5.20215C40.9482 5.79395 41.2002 6.67871 41.2119 7.85645V14H38.6719V7.91797C38.6719 7.37891 38.5547 6.98926 38.3203 6.74902C38.0859 6.50293 37.6963 6.37988 37.1514 6.37988C36.4365 6.37988 35.9004 6.68457 35.543 7.29395V14H33.0029V4.49023H35.3936ZM47.5225 14.1758C46.1279 14.1758 44.9912 13.748 44.1123 12.8926C43.2393 12.0371 42.8027 10.8975 42.8027 9.47363V9.22754C42.8027 8.27246 42.9873 7.41992 43.3564 6.66992C43.7256 5.91406 44.2471 5.33398 44.9209 4.92969C45.6006 4.51953 46.374 4.31445 47.2412 4.31445C48.542 4.31445 49.5645 4.72461 50.3086 5.54492C51.0586 6.36523 51.4336 7.52832 51.4336 9.03418V10.0713H45.3779C45.46 10.6924 45.7061 11.1904 46.1162 11.5654C46.5322 11.9404 47.0566 12.1279 47.6895 12.1279C48.668 12.1279 49.4326 11.7734 49.9834 11.0645L51.2314 12.4619C50.8506 13.001 50.335 13.4229 49.6846 13.7275C49.0342 14.0264 48.3135 14.1758 47.5225 14.1758ZM47.2324 6.37109C46.7285 6.37109 46.3184 6.54102 46.002 6.88086C45.6914 7.2207 45.4922 7.70703 45.4043 8.33984H48.9375V8.1377C48.9258 7.5752 48.7734 7.1416 48.4805 6.83691C48.1875 6.52637 47.7715 6.37109 47.2324 6.37109ZM58.0342 11.3721C58.0342 11.0615 57.8789 10.8184 57.5684 10.6426C57.2637 10.4609 56.7715 10.2998 56.0918 10.1592C53.8301 9.68457 52.6992 8.72363 52.6992 7.27637C52.6992 6.43262 53.0479 5.72949 53.7451 5.16699C54.4482 4.59863 55.3652 4.31445 56.4961 4.31445C57.7031 4.31445 58.667 4.59863 59.3877 5.16699C60.1143 5.73535 60.4775 6.47363 60.4775 7.38184H57.9375C57.9375 7.01855 57.8203 6.71973 57.5859 6.48535C57.3516 6.24512 56.9854 6.125 56.4873 6.125C56.0596 6.125 55.7285 6.22168 55.4941 6.41504C55.2598 6.6084 55.1426 6.85449 55.1426 7.15332C55.1426 7.43457 55.2744 7.66309 55.5381 7.83887C55.8076 8.00879 56.2588 8.1582 56.8916 8.28711C57.5244 8.41016 58.0576 8.55078 58.4912 8.70898C59.833 9.20117 60.5039 10.0537 60.5039 11.2666C60.5039 12.1338 60.1318 12.8369 59.3877 13.376C58.6436 13.9092 57.6826 14.1758 56.5049 14.1758C55.708 14.1758 54.999 14.0352 54.3779 13.7539C53.7627 13.4668 53.2793 13.0771 52.9277 12.585C52.5762 12.0869 52.4004 11.5508 52.4004 10.9766H54.8086C54.832 11.4277 54.999 11.7734 55.3096 12.0137C55.6201 12.2539 56.0361 12.374 56.5576 12.374C57.0439 12.374 57.4102 12.2832 57.6562 12.1016C57.9082 11.9141 58.0342 11.6709 58.0342 11.3721ZM66.1025 12.1279C66.5713 12.1279 66.9521 11.999 67.2451 11.7412C67.5381 11.4834 67.6904 11.1406 67.7021 10.7129H70.084C70.0781 11.3574 69.9023 11.9492 69.5566 12.4883C69.2109 13.0215 68.7363 13.4375 68.1328 13.7363C67.5352 14.0293 66.873 14.1758 66.1465 14.1758C64.7871 14.1758 63.7148 13.7451 62.9297 12.8838C62.1445 12.0166 61.752 10.8213 61.752 9.29785V9.13086C61.752 7.66602 62.1416 6.49707 62.9209 5.62402C63.7002 4.75098 64.7695 4.31445 66.1289 4.31445C67.3184 4.31445 68.2705 4.6543 68.9854 5.33398C69.7061 6.00781 70.0723 6.90723 70.084 8.03223H67.7021C67.6904 7.54004 67.5381 7.1416 67.2451 6.83691C66.9521 6.52637 66.5654 6.37109 66.085 6.37109C65.4932 6.37109 65.0449 6.58789 64.7402 7.02148C64.4414 7.44922 64.292 8.14648 64.292 9.11328V9.37695C64.292 10.3555 64.4414 11.0586 64.7402 11.4863C65.0391 11.9141 65.4932 12.1279 66.1025 12.1279ZM74.0127 5.52734C74.6865 4.71875 75.5332 4.31445 76.5527 4.31445C78.6152 4.31445 79.6611 5.5127 79.6904 7.90918V14H77.1504V7.97949C77.1504 7.43457 77.0332 7.0332 76.7988 6.77539C76.5645 6.51172 76.1748 6.37988 75.6299 6.37988C74.8857 6.37988 74.3467 6.66699 74.0127 7.24121V14H71.4727V0.5H74.0127V5.52734Z" fill="#0DDBB9"/>
</svg>
