<svg width="63" height="15" viewBox="0 0 63 15" fill="none" xmlns="http://www.w3.org/2000/svg">
<path d="M7.77832 10.6426C7.77832 10.1445 7.60254 9.76367 7.25098 9.5C6.89941 9.23047 6.2666 8.94922 5.35254 8.65625C4.43848 8.35742 3.71484 8.06445 3.18164 7.77734C1.72852 6.99219 1.00195 5.93457 1.00195 4.60449C1.00195 3.91309 1.19531 3.29785 1.58203 2.75879C1.97461 2.21387 2.53418 1.78906 3.26074 1.48438C3.99316 1.17969 4.81348 1.02734 5.72168 1.02734C6.63574 1.02734 7.4502 1.19434 8.16504 1.52832C8.87988 1.85645 9.43359 2.32227 9.82617 2.92578C10.2246 3.5293 10.4238 4.21484 10.4238 4.98242H7.78711C7.78711 4.39648 7.60254 3.94238 7.2334 3.62012C6.86426 3.29199 6.3457 3.12793 5.67773 3.12793C5.0332 3.12793 4.53223 3.26563 4.1748 3.54102C3.81738 3.81055 3.63867 4.16797 3.63867 4.61328C3.63867 5.0293 3.84668 5.37793 4.2627 5.65918C4.68457 5.94043 5.30273 6.2041 6.11719 6.4502C7.61719 6.90137 8.70996 7.46094 9.39551 8.12891C10.0811 8.79688 10.4238 9.62891 10.4238 10.625C10.4238 11.7324 10.0049 12.6025 9.16699 13.2354C8.3291 13.8623 7.20117 14.1758 5.7832 14.1758C4.79883 14.1758 3.90234 13.9971 3.09375 13.6396C2.28516 13.2764 1.66699 12.7812 1.23926 12.1543C0.817383 11.5273 0.606445 10.8008 0.606445 9.97461H3.25195C3.25195 11.3867 4.0957 12.0928 5.7832 12.0928C6.41016 12.0928 6.89941 11.9668 7.25098 11.7148C7.60254 11.457 7.77832 11.0996 7.77832 10.6426ZM15.0908 2.15234V4.49023H16.7168V6.35352H15.0908V11.0996C15.0908 11.4512 15.1582 11.7031 15.293 11.8555C15.4277 12.0078 15.6855 12.084 16.0664 12.084C16.3477 12.084 16.5967 12.0635 16.8135 12.0225V13.9473C16.3154 14.0996 15.8027 14.1758 15.2754 14.1758C13.4941 14.1758 12.5859 13.2764 12.5508 11.4775V6.35352H11.1621V4.49023H12.5508V2.15234H15.0908ZM23.8271 13.0332C23.2002 13.7949 22.333 14.1758 21.2256 14.1758C20.2061 14.1758 19.4268 13.8828 18.8877 13.2969C18.3545 12.7109 18.082 11.8525 18.0703 10.7217V4.49023H20.6104V10.6338C20.6104 11.624 21.0615 12.1191 21.9639 12.1191C22.8252 12.1191 23.417 11.8203 23.7393 11.2227V4.49023H26.2881V14H23.8975L23.8271 13.0332ZM27.8086 9.1748C27.8086 7.69238 28.1396 6.51172 28.8018 5.63281C29.4697 4.75391 30.3809 4.31445 31.5352 4.31445C32.4609 4.31445 33.2256 4.66016 33.8291 5.35156V0.5H36.3779V14H34.084L33.9609 12.9893C33.3281 13.7803 32.5137 14.1758 31.5176 14.1758C30.3984 14.1758 29.499 13.7363 28.8193 12.8574C28.1455 11.9727 27.8086 10.7451 27.8086 9.1748ZM30.3486 9.35938C30.3486 10.25 30.5039 10.9326 30.8145 11.4072C31.125 11.8818 31.5762 12.1191 32.168 12.1191C32.9531 12.1191 33.5068 11.7881 33.8291 11.126V7.37305C33.5127 6.71094 32.9648 6.37988 32.1855 6.37988C30.9609 6.37988 30.3486 7.37305 30.3486 9.35938ZM42.7236 14.1758C41.3291 14.1758 40.1924 13.748 39.3135 12.8926C38.4404 12.0371 38.0039 10.8975 38.0039 9.47363V9.22754C38.0039 8.27246 38.1885 7.41992 38.5576 6.66992C38.9268 5.91406 39.4482 5.33398 40.1221 4.92969C40.8018 4.51953 41.5752 4.31445 42.4424 4.31445C43.7432 4.31445 44.7656 4.72461 45.5098 5.54492C46.2598 6.36523 46.6348 7.52832 46.6348 9.03418V10.0713H40.5791C40.6611 10.6924 40.9072 11.1904 41.3174 11.5654C41.7334 11.9404 42.2578 12.1279 42.8906 12.1279C43.8691 12.1279 44.6338 11.7734 45.1846 11.0645L46.4326 12.4619C46.0518 13.001 45.5361 13.4229 44.8857 13.7275C44.2354 14.0264 43.5146 14.1758 42.7236 14.1758ZM42.4336 6.37109C41.9297 6.37109 41.5195 6.54102 41.2031 6.88086C40.8926 7.2207 40.6934 7.70703 40.6055 8.33984H44.1387V8.1377C44.127 7.5752 43.9746 7.1416 43.6816 6.83691C43.3887 6.52637 42.9727 6.37109 42.4336 6.37109ZM50.4229 4.49023L50.502 5.58887C51.1816 4.73926 52.0928 4.31445 53.2354 4.31445C54.2432 4.31445 54.9932 4.61035 55.4854 5.20215C55.9775 5.79395 56.2295 6.67871 56.2412 7.85645V14H53.7012V7.91797C53.7012 7.37891 53.584 6.98926 53.3496 6.74902C53.1152 6.50293 52.7256 6.37988 52.1807 6.37988C51.4658 6.37988 50.9297 6.68457 50.5723 7.29395V14H48.0322V4.49023H50.4229ZM61.2158 2.15234V4.49023H62.8418V6.35352H61.2158V11.0996C61.2158 11.4512 61.2832 11.7031 61.418 11.8555C61.5527 12.0078 61.8105 12.084 62.1914 12.084C62.4727 12.084 62.7217 12.0635 62.9385 12.0225V13.9473C62.4404 14.0996 61.9277 14.1758 61.4004 14.1758C59.6191 14.1758 58.7109 13.2764 58.6758 11.4775V6.35352H57.2871V4.49023H58.6758V2.15234H61.2158Z" fill="#0DDBB9"/>
</svg>
